UNKNOWN
version=1
nRows=100
nColumns=3
inDegrees=no
endheader
time	knee_angle_r	rect_fem_r
      0.00000000	   -119.99999986	      0.48909739
      1.00000000	   -118.68686855	      0.48866042
      2.00000000	   -117.37373723	      0.48821568
      3.00000000	   -116.06060592	      0.48776298
      4.00000000	   -114.74747460	      0.48730213
      5.00000000	   -113.43434329	      0.48683298
      6.00000000	   -112.12121198	      0.48635540
      7.00000000	   -110.80808066	      0.48586930
      8.00000000	   -109.49494935	      0.48537460
      9.00000000	   -108.18181803	      0.48487128
     10.00000000	   -106.86868672	      0.48435930
     11.00000000	   -105.55555540	      0.48383868
     12.00000000	   -104.24242409	      0.48330946
     13.00000000	   -102.92929277	      0.48277168
     14.00000000	   -101.61616146	      0.48222544
     15.00000000	   -100.30303015	      0.48167085
     16.00000000	    -98.98989883	      0.48110802
     17.00000000	    -97.67676752	      0.48053710
     18.00000000	    -96.36363620	      0.47995828
     19.00000000	    -95.05050489	      0.47937174
     20.00000000	    -93.73737357	      0.47877769
     21.00000000	    -92.42424226	      0.47817640
     22.00000000	    -91.11111094	      0.47756811
     23.00000000	    -89.79797963	      0.47695313
     24.00000000	    -88.48484831	      0.47633176
     25.00000000	    -87.17171700	      0.47570435
     26.00000000	    -85.85858569	      0.47507126
     27.00000000	    -84.54545437	      0.47443290
     28.00000000	    -83.23232306	      0.47378646
     29.00000000	    -81.91919174	      0.47313650
     30.00000000	    -80.60606043	      0.47246765
     31.00000000	    -79.29292911	      0.47178053
     32.00000000	    -77.97979780	      0.47107571
     33.00000000	    -76.66666648	      0.47035368
     34.00000000	    -75.35353517	      0.46961492
     35.00000000	    -74.04040385	      0.46885991
     36.00000000	    -72.72727254	      0.46808906
     37.00000000	    -71.41414123	      0.46730279
     38.00000000	    -70.10100991	      0.46650149
     39.00000000	    -68.78787860	      0.46568552
     40.00000000	    -67.47474728	      0.46485522
     41.00000000	    -66.16161597	      0.46401089
     42.00000000	    -64.84848465	      0.46315282
     43.00000000	    -63.53535334	      0.46228126
     44.00000000	    -62.22222202	      0.46139643
     45.00000000	    -60.90909071	      0.46049853
     46.00000000	    -59.59595939	      0.45958772
     47.00000000	    -58.28282808	      0.45866417
     48.00000000	    -56.96969677	      0.45772814
     49.00000000	    -55.65656545	      0.45677986
     50.00000000	    -54.34343414	      0.45581962
     51.00000000	    -53.03030282	      0.45484768
     52.00000000	    -51.71717151	      0.45386435
     53.00000000	    -50.40404019	      0.45286990
     54.00000000	    -49.09090888	      0.45186466
     55.00000000	    -47.77777756	      0.45084894
     56.00000000	    -46.46464625	      0.44982305
     57.00000000	    -45.15151493	      0.44878734
     58.00000000	    -43.83838362	      0.44774213
     59.00000000	    -42.52525231	      0.44668777
     60.00000000	    -41.21212099	      0.44562460
     61.00000000	    -39.89898968	      0.44455298
     62.00000000	    -38.58585836	      0.44347319
     63.00000000	    -37.27272705	      0.44238528
     64.00000000	    -35.95959573	      0.44128929
     65.00000000	    -34.64646442	      0.44018524
     66.00000000	    -33.33333310	      0.43907319
     67.00000000	    -32.02020179	      0.43795319
     68.00000000	    -30.70707048	      0.43682532
     69.00000000	    -29.39393916	      0.43568973
     70.00000000	    -28.08080785	      0.43454756
     71.00000000	    -26.76767653	      0.43340053
     72.00000000	    -25.45454522	      0.43225015
     73.00000000	    -24.14141390	      0.43109764
     74.00000000	    -22.82828259	      0.42994397
     75.00000000	    -21.51515127	      0.42878982
     76.00000000	    -20.20201996	      0.42763561
     77.00000000	    -18.88888864	      0.42648171
     78.00000000	    -17.57575733	      0.42533003
     79.00000000	    -16.26262602	      0.42418274
     80.00000000	    -14.94949470	      0.42304151
     81.00000000	    -13.63636339	      0.42190750
     82.00000000	    -12.32323207	      0.42078139
     83.00000000	    -11.01010076	      0.41966328
     84.00000000	     -9.69696944	      0.41855279
     85.00000000	     -8.38383813	      0.41744802
     86.00000000	     -7.07070681	      0.41634509
     87.00000000	     -5.75757550	      0.41524057
     88.00000000	     -4.44444418	      0.41413169
     89.00000000	     -3.13131287	      0.41301636
     90.00000000	     -1.81818156	      0.41189316
     91.00000000	     -0.50505024	      0.41076138
     92.00000000	      0.80808107	      0.40962653
     93.00000000	      2.12121239	      0.40851091
     94.00000000	      3.43434370	      0.40742071
     95.00000000	      4.74747502	      0.40636957
     96.00000000	      6.06060633	      0.40536957
     97.00000000	      7.37373765	      0.40441697
     98.00000000	      8.68686896	      0.40350126
     99.00000000	     10.00000028	      0.40261217
